<?xml version="1.0" encoding="UTF-8" standalone="no"?>
<!-- Created with Inkscape (http://www.inkscape.org/) -->

<svg
   xmlns:osb="http://www.openswatchbook.org/uri/2009/osb"
   xmlns:dc="http://purl.org/dc/elements/1.1/"
   xmlns:cc="http://creativecommons.org/ns#"
   xmlns:rdf="http://www.w3.org/1999/02/22-rdf-syntax-ns#"
   xmlns:svg="http://www.w3.org/2000/svg"
   xmlns="http://www.w3.org/2000/svg"
   xmlns:sodipodi="http://sodipodi.sourceforge.net/DTD/sodipodi-0.dtd"
   xmlns:inkscape="http://www.inkscape.org/namespaces/inkscape"
   width="210mm"
   height="297mm"
   viewBox="0 0 744.09448819 1052.3622047"
   id="svg2"
   version="1.1"
   inkscape:version="0.91 r13725"
   sodipodi:docname="drawing.svg">
  <defs
     id="defs4">
    <linearGradient
       id="linearGradient5872"
       osb:paint="solid">
      <stop
         style="stop-color:#ffffff;stop-opacity:0.06508876;"
         offset="0"
         id="stop5874" />
    </linearGradient>
    <style
       id="style4196"
       type="text/css">
   
    .fil1 {fill:none}
    .fil0 {fill:black;fill-rule:nonzero}
   
  </style>
  </defs>
  <sodipodi:namedview
     id="base"
     pagecolor="#ffffff"
     bordercolor="#666666"
     borderopacity="1.0"
     inkscape:pageopacity="0.0"
     inkscape:pageshadow="2"
     inkscape:zoom="0.7"
     inkscape:cx="115.86648"
     inkscape:cy="567.6049"
     inkscape:document-units="px"
     inkscape:current-layer="g4160"
     showgrid="false"
     showguides="false"
     inkscape:window-width="1920"
     inkscape:window-height="1147"
     inkscape:window-x="2296"
     inkscape:window-y="60"
     inkscape:window-maximized="1" />
  <metadata
     id="metadata7">
    <rdf:RDF>
      <cc:Work
         rdf:about="">
        <dc:format>image/svg+xml</dc:format>
        <dc:type
           rdf:resource="http://purl.org/dc/dcmitype/StillImage" />
        <dc:title></dc:title>
      </cc:Work>
    </rdf:RDF>
  </metadata>
  <g
     inkscape:label="Layer 1"
     inkscape:groupmode="layer"
     id="layer1">
    <g
       id="g4160"
       transform="translate(98.964489,289.33608)">
      <flowRoot
         xml:space="preserve"
         id="flowRoot4170"
         style="font-style:normal;font-weight:normal;font-size:40px;line-height:125%;font-family:sans-serif;letter-spacing:0px;word-spacing:0px;fill:#000000;fill-opacity:1;stroke:none;stroke-width:1px;stroke-linecap:butt;stroke-linejoin:miter;stroke-opacity:1"
         transform="translate(-178.34302,-127.80454)"><flowRegion
           id="flowRegion4172"><rect
             id="rect4174"
             width="471.71567"
             height="607.0495"
             x="212.14285"
             y="178.07649" /></flowRegion><flowPara
           id="flowPara4178"
           style="font-style:normal;font-variant:normal;font-weight:bold;font-stretch:normal;font-size:45px;font-family:'Univers Next Pro';-inkscape-font-specification:'Univers Next Pro Bold';text-align:center;text-anchor:middle">restricted area</flowPara><flowPara
           style="font-style:normal;font-variant:normal;font-weight:normal;font-stretch:normal;font-size:45px;font-family:'Univers Next Pro';-inkscape-font-specification:'Univers Next Pro';text-align:center;text-anchor:middle"
           id="flowPara5950">only enter when a lab monitor is present</flowPara><flowPara
           style="font-style:normal;font-variant:normal;font-weight:normal;font-stretch:normal;font-size:45px;font-family:'Univers Next Pro';-inkscape-font-specification:'Univers Next Pro';text-align:center;text-anchor:middle"
           id="flowPara5966" /><flowPara
           style="font-style:normal;font-variant:normal;font-weight:normal;font-stretch:normal;font-size:17.5px;font-family:'Univers Next Pro';-inkscape-font-specification:'Univers Next Pro';text-align:center;text-anchor:middle"
           id="flowPara5962">... so we can stay safe and keep the lab accessible</flowPara><flowPara
           style="font-style:normal;font-variant:normal;font-weight:normal;font-stretch:normal;font-size:17.5px;font-family:'Univers Next Pro';-inkscape-font-specification:'Univers Next Pro';text-align:center;text-anchor:middle"
           id="flowPara5960" /><flowPara
           style="font-style:normal;font-variant:normal;font-weight:normal;font-stretch:normal;font-size:17.5px;font-family:'Univers Next Pro';-inkscape-font-specification:'Univers Next Pro';text-align:center;text-anchor:middle"
           id="flowPara5956">violations will be reported</flowPara><flowPara
           style="font-style:normal;font-variant:normal;font-weight:normal;font-stretch:normal;font-size:17.5px;font-family:'Univers Next Pro';-inkscape-font-specification:'Univers Next Pro';text-align:center;text-anchor:middle"
           id="flowPara5944" /><flowPara
           style="font-style:normal;font-variant:normal;font-weight:normal;font-stretch:normal;font-size:17.5px;font-family:'Univers Next Pro';-inkscape-font-specification:'Univers Next Pro';text-align:center;text-anchor:middle"
           id="flowPara5958">exceptions are retrieving a finished 3d print and accessing personal project storage</flowPara><flowPara
           style="font-style:normal;font-variant:normal;font-weight:normal;font-stretch:normal;font-size:17.5px;font-family:'Univers Next Pro';-inkscape-font-specification:'Univers Next Pro';text-align:center;text-anchor:middle"
           id="flowPara6014" /><flowPara
           style="font-style:normal;font-variant:normal;font-weight:normal;font-stretch:normal;font-size:17.5px;font-family:'Univers Next Pro';-inkscape-font-specification:'Univers Next Pro';text-align:center;text-anchor:middle"
           id="flowPara6018" /><flowPara
           style="font-style:normal;font-variant:normal;font-weight:normal;font-stretch:normal;font-size:17.5px;font-family:'Univers Next Pro';-inkscape-font-specification:'Univers Next Pro';text-align:center;text-anchor:middle"
           id="flowPara5952" /><flowPara
           style="font-style:normal;font-variant:normal;font-weight:bold;font-stretch:normal;font-size:15px;font-family:'Univers Next Pro';-inkscape-font-specification:'Univers Next Pro Bold';text-align:center;text-anchor:middle"
           id="flowPara5968">new to the CollabLab?</flowPara><flowPara
           style="font-style:normal;font-variant:normal;font-weight:normal;font-stretch:normal;font-size:15px;font-family:'Univers Next Pro';-inkscape-font-specification:'Univers Next Pro';text-align:center;text-anchor:middle"
           id="flowPara6002">all types of personal projects are welcome</flowPara><flowPara
           style="font-style:normal;font-variant:normal;font-weight:normal;font-stretch:normal;font-size:15px;font-family:'Univers Next Pro';-inkscape-font-specification:'Univers Next Pro';text-align:center;text-anchor:middle"
           id="flowPara5996">come in whenever the lab is open</flowPara><flowPara
           style="font-style:normal;font-variant:normal;font-weight:normal;font-stretch:normal;font-size:15px;font-family:'Univers Next Pro';-inkscape-font-specification:'Univers Next Pro';text-align:center;text-anchor:middle"
           id="flowPara5976">lab status and scheduled hours are posted on</flowPara><flowPara
           style="font-style:normal;font-variant:normal;font-weight:normal;font-stretch:normal;font-size:15px;font-family:'Univers Next Pro';-inkscape-font-specification:'Univers Next Pro';text-align:center;text-anchor:middle"
           id="flowPara5998">http://collablab.wpi.edu</flowPara><flowPara
           style="font-style:normal;font-variant:normal;font-weight:normal;font-stretch:normal;font-size:15px;font-family:'Univers Next Pro';-inkscape-font-specification:'Univers Next Pro';text-align:center;text-anchor:middle"
           id="flowPara5978">we are <flowSpan
   style="font-style:italic;font-variant:normal;font-weight:normal;font-stretch:normal;font-size:15px;font-family:'Univers Next Pro';-inkscape-font-specification:'Univers Next Pro Italic'"
   id="flowSpan5982">always</flowSpan> open during scheduled hours </flowPara><flowPara
           style="font-style:normal;font-variant:normal;font-weight:normal;font-stretch:normal;font-size:15px;font-family:'Univers Next Pro';-inkscape-font-specification:'Univers Next Pro';text-align:center;text-anchor:middle"
           id="flowPara6000">and <flowSpan
   style="font-style:italic;font-variant:normal;font-weight:normal;font-stretch:normal;font-size:15px;font-family:'Univers Next Pro';-inkscape-font-specification:'Univers Next Pro Italic'"
   id="flowSpan5984">usually</flowSpan> in afternoons and evenings</flowPara><flowPara
           style="font-style:normal;font-variant:normal;font-weight:normal;font-stretch:normal;font-size:15px;font-family:'Univers Next Pro';-inkscape-font-specification:'Univers Next Pro';text-align:center;text-anchor:middle"
           id="flowPara5992">ask our friendly lab monitors for tool and project help</flowPara><flowPara
           style="font-style:normal;font-variant:normal;font-weight:normal;font-stretch:normal;font-size:17.5px;font-family:'Univers Next Pro';-inkscape-font-specification:'Univers Next Pro';text-align:center;text-anchor:middle"
           id="flowPara5974" /><flowPara
           id="flowPara4184"
           style="font-style:normal;font-variant:normal;font-weight:normal;font-stretch:normal;font-size:17.5px;font-family:'Univers Next Pro';-inkscape-font-specification:'Univers Next Pro';text-align:center;text-anchor:middle" /></flowRoot>      <g
         id="g5924"
         transform="matrix(2.0282663,0,0,2.0282663,828.39805,-765.04391)">
        <g
           transform="translate(-324.67396,275.49426)"
           id="g4247">
          <path
             style="fill:none"
             inkscape:connector-curvature="0"
             d="m 54.363,59.184 c 2.027,-0.805 3.926,-2.14 5.637,-3.824 -1.711,1.683 -3.609,3.018 -5.637,3.824 z"
             id="path4249" />
          <path
             style="fill:none"
             inkscape:connector-curvature="0"
             d="m 40.104,55.313 c -10e-4,1.838 -1.228,2.985 -2.266,3.627 1.038,-0.642 2.265,-1.79 2.266,-3.627 z"
             id="path4251" />
          <path
             style="fill:none"
             inkscape:connector-curvature="0"
             d="m 34.365,35.378 c 0.239,-0.041 0.487,0.05 0.73,0.247 l 0,-10e-4 c -0.243,-0.197 -0.491,-0.288 -0.73,-0.246 -0.104,0.016 -0.201,0.061 -0.292,0.125 -0.496,0.357 -0.769,1.381 -0.733,2.663 -0.036,-1.282 0.238,-2.305 0.733,-2.662 0.091,-0.064 0.188,-0.109 0.292,-0.126 z"
             id="path4253" />
          <path
             style="fill:none"
             inkscape:connector-curvature="0"
             d="m 35.101,35.567 c 0.083,-0.817 1.171,-9.971 8.023,-9.337 l 20.96,10.789 1.703,-1.64 c 0.059,0.011 0.115,0.029 0.17,0.055 0.561,0.263 0.883,1.31 0.857,2.657 0.024,-1.347 -0.297,-2.395 -0.857,-2.658 -0.055,-0.026 -0.111,-0.044 -0.17,-0.055 l -1.703,1.64 -20.96,-10.789 c -6.852,-0.634 -7.94,8.52 -8.023,9.338 -0.005,0.037 -0.006,0.057 -0.006,0.058 l 0,10e-4 c 0,-10e-4 10e-4,-0.021 0.006,-0.059 z"
             id="path4255" />
          <path
             style="fill:none"
             inkscape:connector-curvature="0"
             d="m 34.864,42.728 c 0.291,0.292 0.596,0.436 0.883,0.385 0.139,-0.025 0.267,-0.094 0.381,-0.201 1.391,4.332 4.052,8.648 7.406,11.255 1.483,1.153 3.102,1.972 4.809,2.31 0.569,0.111 1.147,0.17 1.733,0.17 2.331,0 4.537,-0.93 6.506,-2.449 3.374,-2.604 6.046,-6.935 7.443,-11.283 0.113,0.108 0.242,0.176 0.381,0.2 0.246,0.043 0.508,-0.057 0.761,-0.271 0.633,-0.537 1.231,-1.795 1.503,-3.322 0.09,-0.498 0.137,-0.98 0.145,-1.429 0.025,-1.347 -0.297,-2.394 -0.856,-2.657 -0.056,-0.026 -0.11,-0.044 -0.17,-0.055 L 64.086,37.021 43.124,26.23 c -6.852,-0.634 -7.94,8.52 -8.023,9.337 -0.005,0.038 -0.006,0.058 -0.006,0.059 l 0,-10e-4 c -0.243,-0.197 -0.491,-0.288 -0.73,-0.247 -0.104,0.017 -0.201,0.062 -0.292,0.126 -0.496,0.357 -0.769,1.38 -0.733,2.662 0.012,0.427 0.058,0.883 0.142,1.353 0.255,1.429 0.793,2.621 1.382,3.209 z"
             id="path4257" />
          <path
             style="fill:none"
             inkscape:connector-curvature="0"
             d="M 60.034,55.376 C 60.021,55.371 60.012,55.365 60,55.359 c -1.711,1.685 -3.609,3.02 -5.637,3.824 -1.375,0.545 -2.813,0.848 -4.287,0.848 -1.474,0 -2.91,-0.303 -4.286,-0.848 -2.046,-0.813 -3.961,-2.162 -5.684,-3.871 -0.001,0 -0.001,0 -0.002,0 -10e-4,1.838 -1.228,2.984 -2.266,3.627 -0.148,0.09 -0.292,0.172 -0.429,0.244 -0.129,0.065 -0.251,0.125 -0.363,0.176 -0.271,0.125 -0.479,0.199 -0.569,0.229 0,0 0,0 0,0.002 0.063,0.537 0.303,1.059 0.687,1.551 1.804,2.305 6.867,5.631 12.837,5.631 5.968,0 11.032,-3.326 12.834,-5.631 0.386,-0.492 0.625,-1.016 0.688,-1.549 0.004,-0.02 0.004,-0.031 0.006,-0.049 -0.737,-0.272 -3.452,-1.459 -3.495,-4.167 z"
             id="path4259" />
          <path
             inkscape:connector-curvature="0"
             d="M 79.76,64.012 C 76.662,61.158 73.747,60.899 72.803,60.68 72.612,60.635 72.416,60.593 72.221,60.557 67.216,55.93 70.633,36.619 70.633,36.619 70.633,7.182 50.723,10.078 50.723,10.078 50.479,10.064 50.239,10.055 50,10.048 c -0.239,0.007 -0.478,0.018 -0.722,0.031 0,0 -19.911,-2.896 -19.911,26.54 0,0 3.417,19.311 -1.589,23.938 -0.196,0.037 -0.39,0.08 -0.58,0.125 -1.65,0.383 -9.315,0.875 -13.464,15.146 -0.561,1.938 -0.364,4.046 0.551,5.771 C 17.683,88.023 35.555,90.003 50,90 55.436,90.002 61.354,89.723 66.805,89.029 65.038,86.458 64,83.35 64,80 64,71.259 71.049,64.143 79.76,64.012 Z M 35.747,43.114 c -0.287,0.051 -0.592,-0.093 -0.883,-0.385 -0.589,-0.588 -1.127,-1.78 -1.383,-3.209 -0.084,-0.47 -0.13,-0.926 -0.142,-1.354 -0.036,-1.282 0.238,-2.306 0.733,-2.663 0.091,-0.064 0.188,-0.109 0.292,-0.126 0.239,-0.041 0.487,0.05 0.73,0.247 l 0,10e-4 c 0,-10e-4 10e-4,-0.021 0.006,-0.059 0.083,-0.817 1.171,-9.971 8.023,-9.337 l 20.96,10.789 1.703,-1.64 c 0.06,0.011 0.114,0.029 0.17,0.055 0.562,0.263 0.883,1.311 0.856,2.658 -0.008,0.45 -0.055,0.932 -0.145,1.43 -0.271,1.527 -0.87,2.785 -1.503,3.322 -0.253,0.214 -0.515,0.314 -0.761,0.271 -0.139,-0.024 -0.268,-0.092 -0.381,-0.2 -1.397,4.348 -4.069,8.68 -7.443,11.283 -1.969,1.52 -4.176,2.449 -6.506,2.449 -0.586,0 -1.165,-0.06 -1.733,-0.172 -1.707,-0.336 -3.326,-1.154 -4.809,-2.308 -3.354,-2.606 -6.015,-6.923 -7.406,-11.254 -0.111,0.108 -0.239,0.177 -0.378,0.202 z m 27.776,16.478 c -0.063,0.533 -0.303,1.057 -0.688,1.549 -1.802,2.305 -6.866,5.631 -12.834,5.631 -5.97,0 -11.033,-3.326 -12.837,-5.631 -0.384,-0.492 -0.624,-1.014 -0.687,-1.551 0,-0.002 0,-0.002 0,-0.002 0.09,-0.029 0.298,-0.104 0.569,-0.229 0.112,-0.051 0.234,-0.109 0.363,-0.176 0.136,-0.072 0.281,-0.154 0.429,-0.244 1.038,-0.643 2.265,-1.791 2.266,-3.627 10e-4,0 10e-4,0 0.002,0 1.723,1.709 3.638,3.058 5.684,3.871 1.376,0.545 2.812,0.848 4.286,0.848 1.474,0 2.912,-0.303 4.287,-0.848 2.027,-0.807 3.926,-2.142 5.637,-3.824 0.012,0.006 0.021,0.012 0.034,0.017 0.043,2.708 2.758,3.896 3.495,4.167 -0.002,0.018 -0.002,0.029 -0.006,0.049 z"
             id="path4261" />
          <path
             inkscape:connector-curvature="0"
             d="m 43.534,54.168 c 1.483,1.152 3.102,1.971 4.809,2.309 -1.707,-0.338 -3.326,-1.157 -4.809,-2.309 -3.354,-2.607 -6.015,-6.924 -7.406,-11.256 -0.114,0.107 -0.242,0.176 -0.381,0.201 -0.287,0.051 -0.592,-0.093 -0.883,-0.385 -0.589,-0.588 -1.127,-1.78 -1.383,-3.209 -0.083,-0.47 -0.13,-0.926 -0.142,-1.353 0.012,0.428 0.058,0.884 0.142,1.354 0.256,1.429 0.794,2.621 1.383,3.209 0.291,0.292 0.596,0.436 0.883,0.385 0.139,-0.025 0.267,-0.094 0.381,-0.2 1.391,4.331 4.052,8.647 7.406,11.254 z"
             id="path4263" />
          <path
             inkscape:connector-curvature="0"
             d="m 65.167,42.842 c -0.253,0.214 -0.515,0.314 -0.761,0.271 -0.139,-0.024 -0.268,-0.092 -0.381,-0.2 -1.397,4.348 -4.069,8.679 -7.443,11.284 3.374,-2.604 6.046,-6.935 7.443,-11.283 0.113,0.108 0.242,0.176 0.381,0.2 0.246,0.043 0.508,-0.057 0.761,-0.272 0.633,-0.536 1.231,-1.794 1.503,-3.321 0.09,-0.498 0.137,-0.98 0.145,-1.43 -0.008,0.449 -0.055,0.932 -0.145,1.429 -0.272,1.527 -0.87,2.785 -1.503,3.322 z"
             id="path4265" />
          <path
             inkscape:connector-curvature="0"
             d="m 40.106,55.313 c 1.723,1.709 3.638,3.06 5.684,3.871 -2.046,-0.814 -3.961,-2.163 -5.684,-3.871 z"
             id="path4267" />
          <path
             inkscape:connector-curvature="0"
             d="m 50.076,60.031 c 1.475,0 2.912,-0.303 4.287,-0.848 -1.375,0.546 -2.813,0.848 -4.287,0.848 z"
             id="path4269" />
          <g
             id="g4271">
            <rect
               style="fill:none"
               x="73.444"
               y="77.698997"
               width="13.113"
               height="3.9879999"
               id="rect4273" />
            <path
               sodipodi:nodetypes="sssss"
               inkscape:connector-curvature="0"
               d="m 80,66 c -7.721,0 -14,6.279 -14,14 0,7.721 6.279,14 14,14 7.719,0 14,-6.279 14,-14 0,-7.721 -6.281,-14 -14,-14 z"
               id="path4275" />
          </g>
        </g>
        <path
           style="opacity:1;fill:#ffffff;fill-opacity:1"
           id="path4148-2"
           d="m -236.07268,353.36575 -1.401,-0.233 c -0.134,-0.435 -0.31,-0.853 -0.521,-1.253 l 0.814,-1.141 c 0.283,-0.348 0.258,-0.85 -0.058,-1.164 l -1.591,-1.588 c -0.164,-0.166 -0.383,-0.254 -0.613,-0.254 -0.201,0 -0.396,0.067 -0.534,0.184 l -1.155,0.824 c -0.402,-0.211 -0.822,-0.385 -1.254,-0.521 l -0.23,-1.381 c -0.045,-0.444 -0.418,-0.78 -0.865,-0.78 l -2.247,0 c -0.446,0 -0.819,0.336 -0.862,0.762 l -0.23,1.399 c -0.436,0.136 -0.855,0.31 -1.258,0.521 l -1.139,-0.813 c -0.334,-0.272 -0.857,-0.247 -1.164,0.06 l -1.589,1.588 c -0.319,0.316 -0.343,0.818 -0.071,1.148 l 0.828,1.156 c -0.213,0.4 -0.388,0.818 -0.521,1.253 l -1.381,0.231 c -0.445,0.045 -0.781,0.416 -0.781,0.865 l 0,2.246 c 0,0.45 0.336,0.82 0.762,0.862 l 1.4,0.233 c 0.134,0.431 0.311,0.853 0.521,1.254 l -0.813,1.14 c -0.285,0.347 -0.259,0.847 0.058,1.165 l 1.588,1.588 c 0.164,0.163 0.383,0.256 0.615,0.256 0.2,0 0.396,-0.07 0.532,-0.186 l 1.155,-0.825 c 0.404,0.211 0.822,0.386 1.258,0.521 l 0.229,1.381 c 0.045,0.445 0.418,0.781 0.865,0.781 l 2.247,0 c 0.448,0 0.819,-0.336 0.86,-0.761 l 0.234,-1.401 c 0.434,-0.135 0.854,-0.31 1.254,-0.521 l 1.139,0.813 c 0.337,0.274 0.861,0.246 1.166,-0.06 l 1.589,-1.588 c 0.315,-0.317 0.343,-0.817 0.071,-1.147 l -0.826,-1.154 c 0.211,-0.4 0.386,-0.822 0.52,-1.256 l 1.381,-0.232 c 0.446,-0.042 0.783,-0.412 0.783,-0.863 l 0,-2.246 c -0.002,-0.449 -0.339,-0.82 -0.765,-0.863 z m -8.532,5.703 c -2.05,0 -3.718,-1.666 -3.718,-3.717 0,-2.052 1.668,-3.719 3.718,-3.719 2.05,0 3.72,1.667 3.72,3.719 0,2.051 -1.67,3.717 -3.72,3.717 z"
           inkscape:connector-curvature="0" />
      </g>
    </g>
  </g>
</svg>
